<?xml version="1.0" encoding="UTF-8" standalone="no"?>
<!DOCTYPE svg PUBLIC "-//W3C//DTD SVG 1.1//EN" "http://www.w3.org/Graphics/SVG/1.1/DTD/svg11.dtd">
<svg width="100%" height="100%" viewBox="0 0 250 250" version="1.1" xmlns="http://www.w3.org/2000/svg" xmlns:xlink="http://www.w3.org/1999/xlink" xml:space="preserve" xmlns:serif="http://www.serif.com/" style="fill-rule:evenodd;clip-rule:evenodd;stroke-linejoin:round;stroke-miterlimit:2;">
    <g transform="matrix(1,0,0,1,5.23185,4.6252)">
        <g transform="matrix(1.52315,0,0,1.52315,-70.0628,-28.879)">
            <path d="M68.13,19.51L68.13,21.33C68.13,30.59 72.8,38.23 81.69,43.46C79.72,46.19 78.18,49.97 76.27,54.95C72.71,64.67 68.38,75.19 54.13,86.49C57.12,73.41 64.5,62.46 72.92,50.74L73.04,50.56L73.15,50.38L73.92,48.68L73.31,47.99L69.77,43.46L67.97,45.25C52.99,60.12 45.88,77.93 46,99.79C46.2,136.81 76.94,177.02 124.72,177.02C167.88,177.02 199.67,140.88 202.99,104.23C206.41,66.01 177.41,19 125.07,18.96L123.11,18.96C120.13,18.96 115.23,19.51 115.23,19.51L68.13,19.51Z" style="fill:url(#_Linear1);fill-rule:nonzero;"/>
        </g>
        <g transform="matrix(1.52315,0,0,1.52315,-70.0628,-28.879)">
            <path d="M145.9,30.81C150.93,33.99 178.99,46.14 189.91,71.78C198.93,94.46 197.88,117.29 184,138.06C168.3,162.48 146.23,169.09 116.87,169.09C133.95,158.85 152.67,138.92 150.73,107.29C150.21,98.68 147.2,90.47 149.15,84.27C152.12,74.61 159.76,73.08 175.57,65.82C170.1,55.21 163.22,50.18 154.72,46.61C152.83,39.7 149.22,34.72 145.9,30.81Z" style="fill:url(#_Linear2);fill-rule:nonzero;"/>
        </g>
        <g transform="matrix(1.52315,0,0,1.52315,-70.0628,-28.879)">
            <path d="M77.95,27.51C80.15,33.01 85.14,37.01 95.71,37.48C87.48,45.87 85.21,52.08 83.06,58.36C81.37,63.59 79.07,68.32 76.77,71.68C82.23,70.67 92.906,71.739 104.206,79.199C100.156,73.389 99.432,56.422 108.752,47.802C120.842,36.382 138.01,41.58 145.7,51.05L146.35,47.58C144.28,37.42 133.74,27.51 118.91,27.51L77.95,27.51Z" style="fill:url(#_Linear3);fill-rule:nonzero;"/>
        </g>
        <g transform="matrix(1.52315,0,0,1.52315,-70.0628,-28.879)">
            <path d="M149.9,53.98C156.45,55.12 161.17,58.17 164.75,61.56C160.07,63.41 155.67,65.66 150.01,67.71C146.05,63.71 146.13,58.41 149.9,53.98Z" style="fill:url(#_Linear4);fill-rule:nonzero;"/>
        </g>
        <g transform="matrix(1.52315,0,0,1.52315,-70.0628,-28.879)">
            <path d="M145.7,51.05C138.57,58.41 138.64,68.21 145.77,73.92C139.52,82.83 140.72,89.68 142.74,98.01C149.14,126.04 134.42,154.81 103.52,166.81C93.35,163.69 85,158.71 77.94,151.91C97.52,147.38 117.94,129.62 118.15,108.24C117.14,96.46 112.15,85.18 103.74,78.84C98.27,69.82 100.29,55.11 109.26,46.61C119.5,37.59 136.99,39.64 145.7,51.05Z" style="fill:url(#_Linear5);fill-rule:nonzero;"/>
        </g>
        <g transform="matrix(1.52315,0,0,1.52315,-70.0628,-28.879)">
            <path d="M178.9,69.62L172.84,72.68C181.1,86.62 180.73,99.48 177.9,112.59C173.15,128.76 161.18,141.96 146.28,149.03L138.79,158.69C164.56,153.83 184.9,129.57 185.76,102.89C186.16,91.21 184.36,80.36 178.9,69.62Z" style="fill:url(#_Linear6);fill-rule:nonzero;"/>
        </g>
        <g transform="matrix(1.52315,0,0,1.52315,-70.0628,-28.879)">
            <path d="M83.85,80.01C68.51,79.48 55.01,93.01 54.91,108.71C54.81,119.72 63.22,137.14 70.94,145.56C93.01,142.01 110.67,123.83 110.67,108.13C110.67,92.53 97.83,79.91 83.85,80.01Z" style="fill:url(#_Linear7);fill-rule:nonzero;"/>
        </g>
        <g transform="matrix(1.52315,0,0,1.52315,-70.0628,-28.879)">
            <path d="M81.8,84.01C68.51,83.61 56.54,94.78 55.31,107.21C55.11,109.52 55.11,110.91 55.56,113.21C56.81,100.31 67.42,85.38 84.76,86.42C97.29,87.71 106.81,96.15 107.72,109.52C107.92,112.75 107.42,116.04 106.61,118.66C108.33,114.43 108.94,111.93 108.63,106.06C107.62,93.64 96.01,84.32 81.8,84.01Z" style="fill:url(#_Linear8);fill-rule:nonzero;"/>
        </g>
        <g transform="matrix(1.52315,0,0,1.52315,-70.0628,-28.879)">
            <path d="M125.5,46.7C120.28,46.7 119.03,51.23 119.03,53.67C119.03,58.09 122.68,60.47 125.4,60.47C130.23,60.47 131.9,56.14 131.9,54.19C131.9,50.01 129.06,46.7 125.5,46.7Z" style="fill:rgb(14,77,114);fill-rule:nonzero;"/>
        </g>
    </g>
    <defs>
        <linearGradient id="_Linear1" x1="0" y1="0" x2="1" y2="0" gradientUnits="userSpaceOnUse" gradientTransform="matrix(9.67716e-15,158.04,-158.04,9.67716e-15,125.9,18.96)"><stop offset="0" style="stop-color:rgb(40,182,224);stop-opacity:1"/><stop offset="0.21" style="stop-color:rgb(33,149,189);stop-opacity:1"/><stop offset="0.58" style="stop-color:rgb(40,117,154);stop-opacity:1"/><stop offset="1" style="stop-color:rgb(10,53,88);stop-opacity:1"/></linearGradient>
        <linearGradient id="_Linear2" x1="0" y1="0" x2="1" y2="0" gradientUnits="userSpaceOnUse" gradientTransform="matrix(8.46782e-15,138.29,-138.29,8.46782e-15,150.4,30.81)"><stop offset="0" style="stop-color:rgb(251,233,113);stop-opacity:1"/><stop offset="1" style="stop-color:rgb(246,135,60);stop-opacity:1"/></linearGradient>
        <linearGradient id="_Linear3" x1="0" y1="0" x2="1" y2="0" gradientUnits="userSpaceOnUse" gradientTransform="matrix(27.74,50.39,-50.39,27.74,84.06,27.51)"><stop offset="0" style="stop-color:rgb(116,215,225);stop-opacity:1"/><stop offset="0.48" style="stop-color:rgb(52,196,242);stop-opacity:1"/><stop offset="1" style="stop-color:rgb(40,168,224);stop-opacity:1"/></linearGradient>
        <linearGradient id="_Linear4" x1="0" y1="0" x2="1" y2="0" gradientUnits="userSpaceOnUse" gradientTransform="matrix(8.4072e-16,13.73,-13.73,8.4072e-16,155.7,53.98)"><stop offset="0" style="stop-color:rgb(246,135,61);stop-opacity:1"/><stop offset="1" style="stop-color:rgb(240,90,80);stop-opacity:1"/></linearGradient>
        <linearGradient id="_Linear5" x1="0" y1="0" x2="1" y2="0" gradientUnits="userSpaceOnUse" gradientTransform="matrix(7.70793e-15,125.88,-125.88,7.70793e-15,114.1,40.92)"><stop offset="0" style="stop-color:rgb(251,224,87);stop-opacity:1"/><stop offset="0.48" style="stop-color:rgb(250,192,75);stop-opacity:1"/><stop offset="1" style="stop-color:rgb(240,90,80);stop-opacity:1"/></linearGradient>
        <linearGradient id="_Linear6" x1="0" y1="0" x2="1" y2="0" gradientUnits="userSpaceOnUse" gradientTransform="matrix(5.45458e-15,89.08,-89.08,5.45458e-15,162.1,69.62)"><stop offset="0" style="stop-color:rgb(247,164,52);stop-opacity:1"/><stop offset="1" style="stop-color:rgb(247,164,52);stop-opacity:0.25"/></linearGradient>
        <linearGradient id="_Linear7" x1="0" y1="0" x2="1" y2="0" gradientUnits="userSpaceOnUse" gradientTransform="matrix(24.11,52.69,-52.69,24.11,68.22,82.41)"><stop offset="0" style="stop-color:rgb(100,192,169);stop-opacity:1"/><stop offset="0.48" style="stop-color:rgb(52,175,213);stop-opacity:1"/><stop offset="1" style="stop-color:rgb(10,135,217);stop-opacity:1"/></linearGradient>
        <linearGradient id="_Linear8" x1="0" y1="0" x2="1" y2="0" gradientUnits="userSpaceOnUse" gradientTransform="matrix(2.12844e-15,34.76,-34.76,2.12844e-15,81.69,83.94)"><stop offset="0" style="stop-color:rgb(216,230,152);stop-opacity:1"/><stop offset="1" style="stop-color:rgb(216,230,152);stop-opacity:0.25"/></linearGradient>
    </defs>
</svg>
